<?xml version="1.0" encoding="utf-8"?>
<!-- Generator: Adobe Illustrator 16.0.0, SVG Export Plug-In . SVG Version: 6.00 Build 0)  -->
<!DOCTYPE svg PUBLIC "-//W3C//DTD SVG 1.1//EN" "http://www.w3.org/Graphics/SVG/1.1/DTD/svg11.dtd">
<svg version="1.1" id="Layer_1" xmlns="http://www.w3.org/2000/svg" xmlns:xlink="http://www.w3.org/1999/xlink" x="0px" y="0px"
	 width="595.275px" height="297.638px" viewBox="0 0 595.275 297.638" enable-background="new 0 0 595.275 297.638"
	 xml:space="preserve">
<g>
	<linearGradient id="SVGID_1_" gradientUnits="userSpaceOnUse" x1="297.6382" y1="180.3833" x2="297.6382" y2="-30.9531">
		<stop  offset="0" style="stop-color:#C7EAFB"/>
		<stop  offset="1" style="stop-color:#007DC5"/>
	</linearGradient>
	<rect fill-rule="evenodd" clip-rule="evenodd" fill="url(#SVGID_1_)" width="595.275" height="149.43"/>
	<linearGradient id="SVGID_2_" gradientUnits="userSpaceOnUse" x1="297.6382" y1="225.1392" x2="297.6382" y2="96.1851">
		<stop  offset="0" style="stop-color:#E1F4FD"/>
		<stop  offset="1" style="stop-color:#008EC7"/>
	</linearGradient>
	<polygon fill-rule="evenodd" clip-rule="evenodd" fill="url(#SVGID_2_)" points="595.275,127.017 590.908,126.622 580.421,122.284 
		571.23,112.834 557.65,108.406 545.045,123.612 528.852,132.505 521.407,134.112 511.58,136.482 504.067,142.618 493.383,141.277 
		481.404,136.245 475.702,129.938 455.374,123.889 437.123,126.948 422.103,133.425 413.312,135.377 404.095,130.64 395.371,129.47 
		387.396,123.999 366.021,117.959 350.31,117.677 337.671,114.069 310.68,117.575 271.083,110.513 257.352,109.164 245.376,109.67 
		224.737,116.154 199.02,113.042 177.105,107.142 159.406,96.185 138.334,108.827 107.992,117.255 93.664,125.684 57.421,133.691 
		23.708,121.891 3.901,118.099 0,118.185 0,225.139 595.275,225.139 	"/>
	<linearGradient id="SVGID_3_" gradientUnits="userSpaceOnUse" x1="297.6382" y1="255.4312" x2="297.6382" y2="97.0278">
		<stop  offset="0" style="stop-color:#3CAFD6"/>
		<stop  offset="1" style="stop-color:#0071AE"/>
	</linearGradient>
	<polygon fill-rule="evenodd" clip-rule="evenodd" fill="url(#SVGID_3_)" points="0,133.52 4.042,134.917 14.015,140.012 
		32.986,124.438 47.193,118.717 59.739,111.355 66.858,116.882 76.586,127.055 94.496,137.371 110.64,141.712 122.911,148.977 
		142.97,155.184 209.977,154.34 253.804,112.198 265.083,109.284 276.618,100.991 287.518,97.027 297.286,100.481 320.179,116.202 
		331.778,119.734 346.117,120.985 361.688,129.056 392.031,154.34 399.781,155.54 408.018,153.456 417.316,145.069 432.461,138.676 
		445.552,128.634 452.022,129.653 462.114,134.347 478.423,148.441 499.915,156.026 515.296,158.996 522.671,156.024 
		527.729,156.87 539.515,162.678 549.643,171.198 565.235,175.413 578.859,169.156 586.172,160.633 595.275,155.015 
		595.275,253.848 0,255.431 	"/>
	<polygon fill-rule="evenodd" clip-rule="evenodd" fill="#FFFFFF" points="0,184.457 7.062,178.995 19.494,171.198 31.715,177.098 
		40.143,186.58 57.421,174.358 76.807,166.562 86.5,159.398 99.564,152.234 112.838,137.062 129.063,125.052 136.543,129.056 
		140.758,134.112 160.459,123.366 169.73,121.786 187.43,109.038 198.071,105.14 209.028,95.025 221.355,87.334 226.728,98.292 
		241.267,113.147 257.808,121.786 266.025,133.27 276.456,140.329 284.462,133.691 294.261,130.741 301.215,125.684 
		308.589,131.795 314.278,139.591 323.339,144.858 332.189,140.012 342.093,129.898 350.521,125.052 357.053,116.413 
		363.585,110.091 375.068,123.366 393.928,140.223 402.145,154.34 411.416,162.348 417.527,175.096 421.53,176.043 426.588,184.683 
		437.018,180.996 444.498,172.567 456.222,165.332 461.145,158.133 469.994,151.391 480.529,166.352 492.54,176.887 
		505.921,181.207 512.979,190.793 522.25,199.328 526.465,207.651 531.943,212.181 539.107,204.701 550.802,198.168 
		567.975,211.865 577.352,225.772 585.147,227.774 593.05,237.361 595.275,238.54 595.275,297.638 0,297.638 	"/>
	<linearGradient id="SVGID_4_" gradientUnits="userSpaceOnUse" x1="302.1689" y1="258.27" x2="302.1689" y2="87.335">
		<stop  offset="0" style="stop-color:#E2ECF1"/>
		<stop  offset="1" style="stop-color:#B8D0DC"/>
	</linearGradient>
	<path fill-rule="evenodd" clip-rule="evenodd" fill="url(#SVGID_4_)" d="M200.284,169.09l-3.582,2.95l-1.686,2.317l-1.896,2.74
		l4.003-0.633l1.264-3.793l3.582-2.738l2.107-3.793L200.284,169.09L200.284,169.09z M341.684,197.057l1.82-8.564l-0.334-4.707
		l2.495-6.061l1.138-6.496l-1.824-6.171l1.144-7.033l4.213-3.308l1.727,2.825l9.385-8.172l-0.091-10.854l3.178-6.616l-2.107-2.212
		l2.95-3.898l3.477-2.529l-2.699-2.665l-1.937-3.34l-1.264-3.161l0.632-4.003l11.483,13.275l18.859,16.857l8.217,14.117l9.271,8.008
		l6.111,12.748l4.003,0.947l5.058,8.64l2.212,6.216l8.112,8.64l3.069,4.517l3.944,2.799l4.921,6.098l0.653,2.928l-1.824-1.83
		l-2.211,0.207l-1.888,2.518l-2.429-2.897l-3.891,1.633l-0.478,3.319l-3.576-1.043l-0.946-5.696l0.579-4.161l-1.473-4.352
		l-2.611-3.678l-1.107,1.156l-0.218,2.616l-0.732-2.272l-1.296-4.557l-6.377-8.531l-0.782,5.611l-3.103,3.506l-0.947,2.291
		l-3.353,0.615l0.074,2.365l3.26,1.008l2.438,2.643l1.622,0.145l0.126,3.578l2.359,3.124l4.716,3.517l2.392,2.785l1.902,2.754
		l-3.564,0.923l-1.685,3.446l-2.301,1.338l-1.666,1.785l-0.928-0.63l-1.729,0.292l1.21-2.49l-2.8-1.407l0.32-1.403l-3.919-0.15
		l-1.442-2.039l-3.906-3.345l-3.902,4.276l1.638-10.077l2.038-5.121l1.732-3.655l-0.411-6.545l0.616-0.637l0.746-1.999l-0.58-1.276
		l0.315-0.983l1.42-1.389l2.125-2.43l-2.438-0.289l-1.438,0.745l-0.935,2.434l-0.163-2.631l1.292-2.535l1.952-0.539l-2.048-0.992
		l-1.427,0.332l-0.812,5.176l-0.083,8.845l-0.798,8.002l-3.992,7.425l-0.873,7.878l0.18,6.2l-4.606-1.593l-2.318-3.595l-5.393-0.323
		l4.762,6.471l-1.75,2.817l3.929,7.981l-5.693-5.716l-3.413-4.967l-0.842-5.64l-2.36-3.128l-4.818-0.976l-2.539-2.479l-3.153,0.276
		l-2.949-5.516l-8.409-0.059l-9.088-10.309l-8.209-1.547l-0.391-0.447l-1.68-0.467l-2.065,1.087l-2.009-1.364l-3.18,2.814
		l-0.467-3.346l1.232-0.657l0.014-1.194l-3.815,1.135l-2.438-1.756l-0.145-2.367l-1.578-0.773l-0.804-1.68l0.905-1.39l-1.837-0.986
		l-2.404-3.688l1.109,5.275l-0.702,1.793l1.633,2.182l1.832,2.328l0.83,2.481l-2.379-2.604l-1.388,0.01l1.384,2.268l-0.18,4.174
		l-2.632-2.129l-4.396-5.43l-0.884-2.463l-2.758-3.861l-2.503-2.768l-1.86-3.172l-1.486,1.125l0.679-1.837l1.185-0.338l1.173-1.851
		l-1.55-0.321l2.05-0.567l-0.101-0.642l-2.527,0.208l0.08-1.38l-1.104-0.55l-1.145,2.104l0.406-2.607l-1.178-3.178l-3.012,0.586
		l-0.974,2.251l-2.046,0.665l-1.78,2.333l-1.941,0.786l-0.439,1.907l-1.152,0.281l-0.052-2.063l-1.482,0.123l-1.307,1.529
		l-1.207,3.656l0.303-3.226l1.227-2.51l1.493-0.39l0.354-1.778l-0.498-0.399l0.835-2.015l1.114-1.589l1.091-0.506l-0.019-2.615
		l1.679,0.055l0.479-0.772l0.839,0.237l0.818-0.67l0.195,1.554l0.922-0.253l1.029-1.564l1.869-1.242l0.823-3.938l-3.128-2.63
		l0.471,3.188l-1.207,2.49l-1.946,1.666l-2.109-0.473l1.411-0.407l-0.607-0.981l1.364-1.484l0.164,0.896l0.743-0.316l0.653-3.555
		l-1.512-2.325l-2.486,4.68l-0.527,3.273l-0.939,1.445l-0.387-2.006l-1.634-1.145l-0.769,1.493l-0.058,1.966l-0.876,2.184
		l0.262,4.945l-1.284,2.809l-1.897,0.91l-1.632,2.588l-0.102,2.295l-0.839-2.107l1.358-2.963l-0.998-0.887l-0.435-2.003
		l-1.293-0.614l1.252-0.476l-0.052-2.946l-1.265-0.428l0.845-0.663l-0.747-1.089l-1.476,0.078l0.401-2.142l0.988-0.22l-0.125-1.17
		l-1.304-0.469l2.042-1.969l3.75-0.144l2.212-0.753l3.464,0.276l-0.202-1.388l-3.233-0.414l-3.413,0.313l2.241-2.956l1.405-4.812
		l3.791-4.222l3.287-3.112l-2.236-0.288l1.75-1.764l1.133,1.345l2.654-2.118l-0.242-2.14l1.321-3.032l1.898-0.317l-0.236-3.361
		l-2.264-0.623l1.143-4.239l-4.041-6.095l7.374,6.111l5.689,7.796l9.061,5.268l-1.19,5.056l0.755,6.304l-1.671,1.81l-0.105,9.482
		l3.999,10.027l-0.102,6.299l1.787,2.492l3.4,3.249l4.733,3.651l0.35,0.982l2.759,0.325l1.251,2.109L341.684,197.057
		L341.684,197.057z M469.994,151.391l10.535,14.961l12.011,10.535l13.381,4.319l7.058,9.587l9.271,8.534l4.215,8.323l5.479,4.53
		l5.074,4.299l-1.598,0.231l-3.514-2.678l0.452,1.74l1.452,2.357l2.268,2.632l1.608,3.227l0.409-2.565l1.082,2.21l2.889,2.957
		l3.673-0.378l4.264,2.181l1.286,3.278l1.198-1.674l1.05,1.901l3.684,3.139l2.013,3.726l2.465,3.242l2.789-0.43l-2.485-2.18
		l-1.562-5.311l-2.91-2.02l2.185-0.607l0.943-4.033l2.264-2.672l-1.071-4.851l2.382-3.179l-0.499-3.385l-5.002-6.277l-5.24-3.713
		l-2.689-5.182l17.173,13.696l9.377,13.907l7.796,2.002l7.902,9.587l2.226,1.179v16.16l-0.492-0.943l-0.458-2.818l-2.761-2.892
		l-3.052,0.303l-3.584-1.058l-1.979-0.357l-0.928-1.667l-1.729-0.993l-1.531-2.729l-3.297-4.216l1.605,5.021l2.078,4.066l1.715,0.33
		l1.464,0.873l-0.636,0.633l-1.913,0.293l2.19,0.738l1.687-0.834l5.662,1.8l3.068,4.849l-1.595,2.29l-4.108-2.673l-5.288-0.091
		l-3.512-0.722l-2.078,1.14l-2.204,3.228l-1.154-0.727l-0.303-1.91l-3.315,0.576l-1.389-2.301l-3.052,0.525l-5.312-0.467
		l0.876-2.791l3.141,0.261l0.976,1.021l1.729-0.773l-2.04-2.203l1.668,0.016l1.407,0.811l1.761-1.235l-1.387-2.579l-0.963,0.418
		l-0.507-1.264l2.39-1.607l0.406-1.783l-2.086,0.291l-2.147,2.588l-3.364,2.143l-0.664-2.003l0.572-2.36l-2.052-2.336l-3.951,0.842
		l0.069-2.974l-0.174-2.288l-1.52,3.34l-1.422,1.451l-0.161-4.955l-1.76-1.506l0.087,2.723l-1.42,1.392l1.09,2.575l3.713,3.639
		l2.352,4.307l-1.915-1.665l-2.79-3.134l-1.714,0.18l-2.503-0.859l-4.979,0.104l-7.639-8.77l-0.219-2.85l-1.05-0.903l-2.163,2.408
		l-1.062,0.321l2.208-2.401l0.471-2.244l-0.943-4.468l-1.122-2.078l0.224-1.748l-2.297-3.024l-1.927,0.544l-1.888-2.465l-0.92,3.572
		l-3.591,1.105l-2.118,1.947l2.328-4.268l1.863-0.089l0.811-2.827l-1.992-3.797l-2.016,0.428l0.398-1.631l-1.812-0.354l-3.724,1.729
		l-3.466,3.412l-4.697,0.55l4.061-1.587l1.871-2.088l0.978-2.119l1.965-1.816l1.825-0.277l-1.884-3.484l-4.171-4.059l-2.809,2.268
		l-4.154-0.571l3.451-0.946l1.913-2.307l-3.11-2.163l-4.899,0.455l-4.054,1.864l-7.043-1.764l-6.323-1.114l-5.729-5.681l3.961,2.49
		l4.632,0.291l7.129-2.045l3.229-2.57l-3.156-5.336l-7.691-3.799l-5.739-8.139l-5.304-3.227l-4.493-10.991L469.994,151.391
		L469.994,151.391z M499.81,191.637l1.58,0.21l0.632-1.265l0.422,1.265l1.791-0.21l-1.369-0.738l-0.211-0.842l0.948-0.422
		l1.369,1.369l3.161-0.316l-0.633-1.475l1.896-0.632L508.765,187l-1.58-0.421l-0.105-1.476l-2.107-0.947l-1.264-1.369l0.105,2.422
		l-0.633,2.529l-2.212,1.369L499.81,191.637L499.81,191.637z M220.09,104.507l3.056-0.843l-3.056-5.162l1.897-1.896l-2.95-4.109
		l2.318-5.163l5.373,10.957l14.539,14.855l16.541,8.639l8.217,11.484l10.43,7.059l0.843,12.326l3.266,9.904l0.211,8.428l2.95,8.429
		l-2.099,2.569l-0.075,8.4l-1.184,6.414l2.01,12.942L277.941,205l-3.697-5.253l-5.794-11.802l-0.572-7.882l-2.191,5.157
		l-0.937,6.133l0.096,5.909l-1.677,3.453l-0.015,4.232l-3.942-3.345l-1.81,0.677l-4.212-7.608l-1.922-2.109l1.976,5.547l1.888,5.255
		l-5.026-3.498l-3.554-5.3l0.067-5.12l1.452-1.289l-0.282-3.44l-1.966,1.855l-0.146-3.729l1.596-1.792l-2.195-2.114l-1.181,1.938
		l-0.519,2.777l-1.91-2.417l-1.458-0.507l1.469-1.383l-0.301-2.179l-2.546-0.596l-2.63-3.456l-0.066,3.969l-3.278-1.535
		l-2.763-2.928l1.485,3.383l-0.579,3.784l1.472,3.993l-4.826-5.088l-4.939-7.546l-1.469,1.84l-0.027,2.643l-2.607-4.327
		l-3.135-2.145l5.871-6.585l2.827-4.668l3.967-3.95l1.477-3.56l2.548-1.214l0.383-4.251l3.555-4.452l0.798-7.381l2.337-5.531
		l3.604-3.884l-0.324-5.328l1.312-3.071l-3.723-2.241l-5.079-3.016l-5.147-0.722l-4.837,0.615l-0.558,1.756l-4.931,2.37
		l-2.432-1.917l-2.527,2.027l-1.148,1.932l-1.046-2.32l3.468-2.652l-1.218-1.101l2.028-3.488l2.632-0.052L220.09,104.507
		L220.09,104.507z M174.788,124.317l0.422,1.894l1.369,0.949l0.041,1.292l1.352,0.102l-1.533,0.604l-2.256,1.008l-0.935,1.775
		l0.9,1.54l-1.164,2.003l0.739,2.853l-1.34,2.413l2.25-0.408l1.107,0.041l0.282-1.381l1.41,0.053l1.144-0.483l0.32,2.287
		l-0.423,1.792l-1.458,0.545l-1.341,2.532l-0.754,2.105l-0.994,0.226l-0.124,1.795l-1.762,1.307l2.686-0.65l3.398-1.93l1.497-2.154
		l2.115-0.691l2.113-2.015l-1.387,2.058l-2.137,1.093l0.203,1.788l1.824-0.131l1.863,0.463l1.422-2.411l1.223-1.052l1.698-3.161
		l1.399-2.456l2.529-1.475l1.581-2.845l2.107-0.527v-2.318l2.107-1.896l0.474-2.052l1.001-1.736l0.579,2.651l1.843-1.797
		l1.582-0.648l-0.422,2.634l-1.264,2.107l-2.164,3.149l0.89,3.063l-2.519,2.216l-1.896,3.161l2.423-0.211l3.363,0.388l4.562-0.178
		l6.195-2.228l-5.616,2.999l-7.988,1.219l-3.968,1.2l-0.604,1.607l-0.474-2.056l-0.632,0.737l-1.265-1.054l-1.896,0.316
		l-0.527,2.107v2.001l-1.053,1.266l-0.105-1.055l-1.37-0.315l-1.686,1.476l-0.737,2.738l-3.161,0.948v1.581l-1.896,0.105
		l-2.002,2.527l-2.107,0.738h-4.109l-1.475-1.686l-0.105,1.369l1.054,1.475l2.107-0.105l0.948,0.738l-1.475,0.526l-0.105,1.476
		l-1.896,0.843l-1.791-0.422l0.316-1.37l-1.686-1.686l-1.475,0.527l-0.527,2.423l0.527,2.318l-0.843,2.423l-0.632,1.264
		l-1.896,1.581l0.316,2.106l-0.527,2.74l0.737,1.264l-0.527,2.634l-0.632,2.002l-1.475,1.054l-2.739,0.633l-1.37,2.316l-2.95,0.527
		l-2.002,1.896l0.21-3.793l0.105-3.266l-0.421-2.002l0.843-1.264l-0.105-2.529l0.949-1.791l0.316-2.528l0.316,1.159l1.37,1.58
		l2.107-0.211l-0.421-2.213l0.421-2.317l2.002-1.686l-0.632-1.687l1.159-0.631l0.843-2.74l1.053-2.527l1.792-0.527l0.526-2.424
		l-0.912-1.834l-1.633,0.581l-0.053,1.109l1.686,0.317l0.422,0.846l-3.108,0.052l-1.212,1.743l-0.316,1.902l-0.896,1.797
		l-1.37-0.316l-1.949,0.316l1.212-1.373l1.106-1.321l-0.158-1.11v-1.796l-1.159,1.638l-1.264,0.423l1.738-2.959l1.107-1.532
		l-0.616-0.379l-1.686,0.844l0.421-1.476l1.264-1.264l0.316,1.686l1.159,0.21h1.791l1.37-2.212l1.053-1.265l-0.948-0.631
		l-0.632-1.37h1.053l0.211-1.37l-0.211-2.528l-1.159-0.421l-0.843,0.421l0.527-2.318l1.369-1.37l1.686-0.211l0.211-1.686
		l0.948-1.475l1.053-1.686l1.37-0.948l0.316-1.792h1.159l1.475-0.421l-1.159-0.316l-0.632-0.843l0.737-0.843l1.896-0.948
		l1.791-0.105l0.21-1.581l-0.948-0.421l-0.526-1.159l1.58,0.316l0.527-1.475l0.527-1.896l-0.421-1.685L174.788,124.317
		L174.788,124.317z M56.315,198.428l4.002-3.448l0.89-2.646l1.831-3.579l2.964-0.825l1.322-2.337l2.745-2.651l3.45-2.565
		l2.268-1.807l-2.523,2.95l-2.206,3.321l1.494,0.52l3.188-0.078l2.383-1.378l-0.596,1.437l-2.062,1.062l-2.596,0.014l-1.249,0.778
		l-0.276,1.325l-1.492,0.127l-2.742,1.427l-0.875,1.624l0.298,2.275l2.097,1.281l0.376,1.184l2.804,1.636l4.315-0.008l2.923-1.681
		l1.721-2.145l2.634-2.222l3.094,0.062l2.08,0.787l2.132,0.41l-0.676,0.958l-2.882-0.347l-4.312-0.325l-1.479,1.453l-1.673,3.264
		l-1.368,1.807l0.109,1.139l1.598-0.156l1.007-0.248l-0.44-0.869l0.396-1.476l0.711-0.041l0.076,1.45l1.858,1.5l1.03-0.075
		l0.209,1.231l0.761,1.539l0.146,1.967l2.074,0.08l1.637-0.594l1.515-1.485l3.374-1.376l1.287-2.18l0.343-3.733l1.96-2.647
		l4.197-0.324l0.658,2.709l2.641,1.844l1.298-0.529l0.017-3.027l0.665-3.084l2.533-2.024l4.411-1.499l-5.262,3.762l-0.876,2.331
		l-0.022,5.388l0.696,4.713l-0.151,2.995l-1.896,1.61l-1.394,1.645l-1.106,2.539l-0.656,3.604l1.534-3.553l1.322-1.971l1.981-0.818
		l1.832-1.297l3.841-1.326l-1.374-1.054l-0.328-1.79l-2.441-4.791l6.637-1.385l5.237,1.693l5.808-1.062l-5.268-0.92l-2.66-3.034
		l-4.365-2.233l4.702-0.254l5.793,2.473l4.159,3.793l4.406,0.43l-3.742-5.346l-1.257-4.161l-4.502-3.46l3.756-3.873l2.354-0.664
		l4.527-5.715l4.931,0.111l0.271-3.41l1.563-0.533l1.176-5.623l3.144-4.538l-0.653-1.535l-1.269,0.308l-2.119-1.604l2.32-2.84
		l0.484-1.709l-2.427-2.114l-0.029-1.058l5.1-1.023l1.856-2.124l2.47-4.371l-0.391-1.881l1.034-2.878l1.55-1.108l0.143-2.009
		l1.588-0.618l3.056-3.116l0.37-1.006l-1.017-0.076l0.025-0.821l2.184-2.324l-2.119,0.19l-2.754,2.247l-1.37,2.626l-0.489,1.763
		l-1.425,0.466l-0.425,1.289l-1.447,0.502l-0.288,1.574l1.115,0.434l-0.321,1.759l-1.808,0.002l-2.335,0.409l-1.062,0.742
		l-1.576-0.797l0.169-1.692l-1.844-0.126l-0.952-1.659l0.498,3.39l1.792,2.893l1.774,0.733l1.748-0.614l0.96-1.717l1.206-0.043
		l0.812,1.506l-2.706,2.915l-2.989,1.017l-0.149-0.754l-0.993-0.433l-0.208-1.209l-1.155,0.083l-0.265,1.751l-0.736,0.017
		l-0.304-1.502l0.104-2.818l-1.791-3.793l-0.316-4.003l1.37-1.581l-4.214-5.057l-7.48-4.004l-2.739,6.322l3.16,3.477l-9.481,9.798
		l-0.185,4.27l-10.772,7.319l-5.725,0.908l0.966,2.059l-2.3,2.617l-8.636,3.477l-5.494,3.34l-3.82,3.142l-4.23,5.547l-2.895-0.02
		l2.4-3.149l1.609-0.184l1.802-2.191l2.903-2.887l3.198-2.555l3.513-2.018l4.024-2.762l0.131-1.508l-0.637-0.973l-1.251-0.023
		l0.598,0.689l0,1.106l-2.062,0.616l0.093-1.726l-2.535,0.444l-1.906,1.059l0.197,1.15l3.455-0.768l-1.105,0.924l-1.84,0.474
		l-0.787,0.531l-0.187-0.993l-1.055-1.004l-1.966,1.775l2.138,0.299l-0.066,1.043l0.276,1.743l-2.917,1.702l-0.308-0.645
		l1.439-1.555l-0.114-1.023l-4.086,0.146l0.918,0.592l-0.102,0.703l-1.111,0.193l-1.068,0.614l2.208,0.358l-2.445,1.677
		l-0.535,1.577l-2.212,0.414l-2.053,2.443l-0.461-0.459l-0.104-1.215l-3.822,2.504l-1.561,2.178l-2.722,1.347l-0.562,1.161
		l-2.776,0.792l-1.217,2.413l-1.171,2.688l-2.806,2.184l-2.634,4.215l-0.527,2.844l-4.846,3.793l2.615-0.045l1.46-0.971
		L56.315,198.428L56.315,198.428z M20.442,177.834l-1.792-4.108l0.843-2.528l12.221,5.9l8.428,9.481l-5.614,4.687l-5.419,6.404
		l-2.726,2.457l-2.105,0.994l-0.104,1.642l-0.807-1.517l1.818-1.297l1.487-2.867l1.457-0.383l0.295-1.686l-0.837-1.013l-0.513,1.739
		l-1.393,0.942l-1.559,1.694l-0.844,1.108l-2.96,0.794l-1.954,1.101l1.054,1.36l4.892,0.457l0.781,1.499l-1.97-0.753l-3.872,0.16
		l-3.428,0.258l-1.687,0.524l-2.718,0.522l-2.353,2.563l0.746-3.206l2.187-2.759l3.224-1.306l2.36-2.461l1.053-1.867l1.033-3.582
		l3.351-1.156l-0.727-1.102l0.127-4.023l1.28-1.787l-0.556,2.103l0.687,2.302l1.941,2.402l3.002,0.139l0.332-0.406l-0.448-1.713
		l1.128,0.883l1.14-0.989l-0.452-3.121l-1.458-1.3l-1.348-2.805l-2.506-2.472L20.442,177.834z"/>
</g>
</svg>
