<?xml version="1.0" encoding="utf-8"?>
<!-- Generator: Adobe Illustrator 16.0.0, SVG Export Plug-In . SVG Version: 6.00 Build 0)  -->
<!DOCTYPE svg PUBLIC "-//W3C//DTD SVG 1.1//EN" "http://www.w3.org/Graphics/SVG/1.1/DTD/svg11.dtd">
<svg version="1.1"
	 id="svg2" sodipodi:docname="escalade.svg" inkscape:version="0.48.2 r9819" xmlns:dc="http://purl.org/dc/elements/1.1/" xmlns:cc="http://creativecommons.org/ns#" xmlns:rdf="http://www.w3.org/1999/02/22-rdf-syntax-ns#" xmlns:svg="http://www.w3.org/2000/svg" xmlns:sodipodi="http://sodipodi.sourceforge.net/DTD/sodipodi-0.dtd" xmlns:inkscape="http://www.inkscape.org/namespaces/inkscape"
	 xmlns="http://www.w3.org/2000/svg" xmlns:xlink="http://www.w3.org/1999/xlink" x="0px" y="0px" width="161.219px"
	 height="304.322px" viewBox="0 0 161.219 304.322" enable-background="new 0 0 161.219 304.322" xml:space="preserve">
<sodipodi:namedview  fit-margin-bottom="0" fit-margin-right="0" inkscape:window-maximized="1" inkscape:window-y="-4" inkscape:current-layer="layer1" inkscape:window-x="-4" inkscape:pageshadow="2" inkscape:document-units="px" inkscape:pageopacity="0.0" inkscape:window-height="998" inkscape:window-width="1680" fit-margin-left="0" fit-margin-top="0" showgrid="false" inkscape:cy="244.94634" inkscape:cx="645.92158" inkscape:zoom="0.63465584" borderopacity="1.0" bordercolor="#666666" pagecolor="#ffffff" id="base">
	</sodipodi:namedview>
<g>
	<defs>
		<rect id="SVGID_1_" x="0" width="161.219" height="304.322"/>
	</defs>
	<clipPath id="SVGID_2_">
		<use xlink:href="#SVGID_1_"  overflow="visible"/>
	</clipPath>
	
		<path id="path3962" sodipodi:nodetypes="ccccsscssssssssssssssssssccssssssssscccsssccsscsssccccccsssssssssscsscsccccscsscssscscccccccccccsscsssssscsssssssssssscsssssccssssccccc" inkscape:connector-curvature="0" clip-path="url(#SVGID_2_)" fill="#072F42" d="
		M-25.705,116.822V-70.679h37.792h37.792l-1.677,9.999c-0.923,5.498-2.505,11.686-3.515,13.75
		c-1.934,3.947-4.435,14.248-3.462,14.256c0.313,0.004,0.625,4.166,0.692,9.25c0.079,5.971,0.689,10.594,1.723,13.053
		c1.297,3.086,1.515,6.492,1.148,18c-0.436,13.713-0.536,14.262-2.973,16.23c-1.387,1.121-2.521,2.719-2.521,3.549
		c0,0.832-0.526,2.039-1.17,2.684c-2.905,2.904,5.07,15.375,21.405,33.463c3.704,4.104,7.913,10.035,9.354,13.182
		c1.441,3.148,3.586,6.178,4.766,6.734c1.18,0.555,4.395,3.875,7.145,7.377c5.016,6.387,12.78,12.58,19.712,15.723
		c2.042,0.926,3.927,1.336,4.188,0.912c1.5-2.428-3.807-14.336-6.921-15.531c-1.56-0.598-2.097-4.629-0.615-4.629
		c1.458,0,6.136-7.475,6.136-9.805c0-1.771,0.577-2.195,2.991-2.195c1.909,0,3.444-0.725,4.241-2c0.687-1.102,1.612-2,2.057-2
		s2.474-0.803,4.509-1.783c11.057-3.578,19.814,2.533,23.769,9.906c3.444,6.648,1.333,16.986-4.059,19.871
		c-3.79,2.029-3.658,3.422,0.913,9.658c6.725,9.176,22.104,43.633,23.273,52.146c0.587,4.268,0.54,4.348-6.302,10.807
		c-8.153,7.699-17.06,14.184-23.643,17.217c-4.91,2.262-5.84,4.027-3.25,6.178c0.825,0.684,1.5,1.832,1.5,2.549
		c0,2.283,6.814,14.479,9.203,16.469c2.77,2.309,1.915,2.477-2.735,0.533c-3.431-1.434-3.468-1.422-3.468,1.107
		c-0.772,4.732-8.23,8.891-13.576,7.277c-5.752-1.029-11.07-4.738-10.104-9.787c0.382-1.908,0.223-3.148-0.404-3.148
		c-0.568,0-0.785-0.404-0.48-0.896c0.979-1.582-1.959-1.932-4.486-0.531c-1.347,0.746-2.085,1.373-1.641,1.393
		c0.445,0.018,0.458,0.598,0.029,1.285c-1.344,2.152-1.459,4.941-0.171,4.146c0.79-0.488,0.965-0.182,0.534,0.939
		c-0.376,0.979-0.138,1.691,0.58,1.734c0.67,0.037,0.318,0.422-0.781,0.852c-1.583,0.617-2.384,0.15-3.837-2.238
		c-1.443-2.371-2.025-2.715-2.714-1.602c-0.482,0.779-1.343,1.473-1.913,1.543c-1.557,1.535-7.05,4.551-7.792,4.863
		c-8.891,3.238-20.61,0.916-28.592-2.98c-7.672-5.162-16.814-11.184-23.218-14.959c-2.051-1.344-2.271-1.285-2.816,0.746
		c0.61,10.307,0.172,21.957,1.825,31.252c0.603,3.211,0.985,3.604,3.121,3.195c1.34-0.256,2.436-0.078,2.436,0.396
		c0,1.842,0.229,2.385,1.281,3.035c0.76,0.469,0.683,1.164-0.257,2.297c-1.079,1.299-1.532,1.363-2.272,0.326
		c-0.616-0.865-0.717-0.463-0.3,1.203c2.644,10.564,1.641,12.072-8.585,12.91c-5.557,0.453-8.16,1.174-10.288,2.848
		c-1.566,1.232-3.904,2.242-5.195,2.242c-2.292,0-2.803,0.865-3.868,6.559c-0.199,1.066-0.397,2.756-0.439,3.75
		s-0.479,1.561-0.972,1.256c-1.079-0.668-2.225,5.781-2.444,13.766c-0.123,4.469-0.607,6.158-2.077,7.232
		c-1.155,0.846-1.916,2.6-1.916,4.42v3.018h-13.334h-13.333V116.822z M15.805,238.304c0.346-0.559,1.047-0.758,1.56-0.441
		c0.512,0.316,0.931-0.162,0.931-1.066c0-2.174-3.719-16.674-5.181-20.197c-1.274-3.074-1.511-3.811-1.694-5.277
		c-0.068-0.551-0.635-1-1.259-1c-0.814,0-0.949,2.965-0.478,10.533C10.492,233.857,13.412,242.177,15.805,238.304z M141.875,161.806
		c2.051-2.691,2.265-3.514,1.206-4.65c-0.707-0.76-1.435-2.043-1.616-2.85c-1.085-2.416-2.677-4.66-3.6-6.734
		c-1.03-2.338-1.994-4.25-2.141-4.25c-1.285,2.096-28.297,35.686-18.321,43.066C127.792,184.181,136.956,168.341,141.875,161.806
		L141.875,161.806z M51.198,164.322c-0.496,0-0.902,0.445-0.902,0.99c-0.925,2.297-6.966,6.717-4.961,8.059
		c3.133-0.25,4.331,1.678,6.711,2.562C59.323,178.632,51.493,164.398,51.198,164.322z M30.274,161.019
		c3.435-3.959,6.917-8.76,7.738-10.666c1.717-3.99,7.444-9.846,13.157-13.453l3.94-2.486l3.951,1.908
		c4.685,2.264,12.292,10.328,17.786,18.854c3.872,6.01,5.416,7.389,5.481,4.896c0.018-0.688,0.421-4.268,0.896-7.955
		c0.749-5.803,0.595-7.25-1.142-10.76c-2.593-5.24-1.862-9.162,2.796-15.021l3.566-4.486l-4.851-4.514
		c-6.679-6.215-12.875-13.889-19.796-24.514c-3.224-4.951-7.019-10.398-8.433-12.107s-3.337-4.053-4.273-5.207
		s-4.854-7.406-8.704-13.893C31.616,43.47,31.579,43.431,29.504,48.072c-1.529,3.418-3.384,6.549-5.11,8.629
		c-0.728,0.877-1.058,2.285-0.733,3.131c0.327,0.852-0.289,2.414-1.388,3.512c-1.088,1.088-1.978,2.605-1.978,3.371
		s-0.675,1.652-1.5,1.969s-1.5,1.715-1.5,3.105c0,1.715-0.565,2.559-1.75,2.611c-1.103,0.049-0.732,0.451,1,1.084
		c3.189,1.164,3.404,2.832,1.32,10.25c-3.465,12.336-3.483,12.521-1.921,19.418c0.831,3.668,1.75,10.045,2.042,14.17
		s0.932,8.26,1.422,9.188c0.539,1.021,0.513,1.924-0.067,2.283c-0.527,0.326-0.712,1.236-0.41,2.021
		c0.302,0.787-0.173,2.877-1.056,4.646s-1.881,5.725-2.22,8.789c-0.338,3.064-1.348,6.922-2.242,8.572
		c-1.053,1.939-1.521,4.777-1.328,8.037l0.3,5.037l5.822,0.162l5.821,0.16L30.274,161.019L30.274,161.019z"/>
</g>
</svg>
